<?xml version="1.0" encoding="UTF-8"?>
<!DOCTYPE svg PUBLIC "-//W3C//DTD SVG 1.1//EN" "http://www.w3.org/Graphics/SVG/1.1/DTD/svg11.dtd">
<svg xmlns="http://www.w3.org/2000/svg" version="1.1" width="312px" height="200px" style="shape-rendering:geometricPrecision; text-rendering:geometricPrecision; image-rendering:optimizeQuality; fill-rule:evenodd; clip-rule:evenodd" xmlns:xlink="http://www.w3.org/1999/xlink">
<g><path style="opacity:0.596" fill="#e7a25b" d="M 173.5,9.5 C 171.612,8.06025 169.945,6.39359 168.5,4.5C 167.145,5.18819 166.145,6.18819 165.5,7.5C 164.395,8.60048 163.062,9.26714 161.5,9.5C 163.484,7.0155 165.65,4.68217 168,2.5C 170.788,4.07179 172.621,6.40512 173.5,9.5 Z"/></g>
<g><path style="opacity:1" fill="#fd7f02" d="M 173.5,9.5 C 180.88,18.8817 187.88,28.5484 194.5,38.5C 194.562,42.5684 196.562,45.235 200.5,46.5C 200.343,47.8734 200.51,49.2068 201,50.5C 203.388,52.2931 205.554,54.2931 207.5,56.5C 209.9,58.2964 211.567,60.6298 212.5,63.5C 213.49,67.4093 214.823,70.7426 216.5,73.5C 215.197,75.5894 215.697,77.2561 218,78.5C 218.617,77.5509 218.451,76.7175 217.5,76C 218.167,75.3333 218.833,75.3333 219.5,76C 221.438,78.4703 222.604,81.3036 223,84.5C 224.008,84.9817 225.175,85.1484 226.5,85C 228.05,88.0513 230.383,90.218 233.5,91.5C 233.562,95.5684 235.562,98.235 239.5,99.5C 240.88,105.549 244.214,110.216 249.5,113.5C 249.343,114.873 249.51,116.207 250,117.5C 253.053,120.887 255.72,124.553 258,128.5C 259.271,129.883 260.771,130.883 262.5,131.5C 262.845,134.198 264.178,136.198 266.5,137.5C 268.012,142.876 270.678,147.71 274.5,152C 273.253,153.494 273.253,154.994 274.5,156.5C 275.167,155.833 275.833,155.167 276.5,154.5C 278.202,156.537 280.202,158.203 282.5,159.5C 283.41,165.642 286.577,170.309 292,173.5C 293.411,179.366 296.577,184.033 301.5,187.5C 302.786,190.117 304.453,192.45 306.5,194.5C 288.179,195.833 269.512,196.5 250.5,196.5C 231.488,196.5 212.821,195.833 194.5,194.5C 197.668,191.49 200.835,188.49 204,185.5C 205.012,181.819 206.679,178.486 209,175.5C 209.495,173.527 209.662,171.527 209.5,169.5C 210.927,167.852 211.76,165.852 212,163.5C 213.21,153.268 212.21,143.268 209,133.5C 208.578,131.574 207.411,130.574 205.5,130.5C 203.416,126.664 201.083,122.997 198.5,119.5C 195.241,113.232 190.241,109.232 183.5,107.5C 171.07,100.748 160.403,91.7482 151.5,80.5C 149.849,76.6848 147.849,73.0181 145.5,69.5C 144.328,69.0814 143.328,68.4147 142.5,67.5C 141.501,63.5044 140.501,59.5044 139.5,55.5C 138.914,55.2907 138.414,54.9574 138,54.5C 137.179,48.3524 137.679,42.3524 139.5,36.5C 141.688,32.7929 144.355,29.4595 147.5,26.5C 149.821,26.3417 151.654,25.3417 153,23.5C 153.333,23.8333 153.667,24.1667 154,24.5C 156.073,21.4105 157.74,18.0772 159,14.5C 160.011,13.6634 161.178,13.33 162.5,13.5C 162.5,12.5 162.5,11.5 162.5,10.5C 163.873,10.6567 165.207,10.49 166.5,10C 165.748,9.32924 165.414,8.4959 165.5,7.5C 166.145,6.18819 167.145,5.18819 168.5,4.5C 169.945,6.39359 171.612,8.06025 173.5,9.5 Z"/></g>
<g><path style="opacity:1" fill="#f28822" d="M 165.5,7.5 C 165.414,8.4959 165.748,9.32924 166.5,10C 165.207,10.49 163.873,10.6567 162.5,10.5C 162.5,11.5 162.5,12.5 162.5,13.5C 161.178,13.33 160.011,13.6634 159,14.5C 157.74,18.0772 156.073,21.4105 154,24.5C 153.667,24.1667 153.333,23.8333 153,23.5C 151.654,25.3417 149.821,26.3417 147.5,26.5C 152.167,20.8333 156.833,15.1667 161.5,9.5C 163.062,9.26714 164.395,8.60048 165.5,7.5 Z"/></g>
<g><path style="opacity:1" fill="#ea9744" d="M 194.5,38.5 C 196.984,40.8003 198.984,43.4669 200.5,46.5C 196.562,45.235 194.562,42.5684 194.5,38.5 Z"/></g>
<g><path style="opacity:0.369" fill="#e89e54" d="M 200.5,46.5 C 203.605,49.2749 205.938,52.6082 207.5,56.5C 205.554,54.2931 203.388,52.2931 201,50.5C 200.51,49.2068 200.343,47.8734 200.5,46.5 Z"/></g>
<g><path style="opacity:1" fill="#ef8626" d="M 139.5,36.5 C 137.679,42.3524 137.179,48.3524 138,54.5C 138.414,54.9574 138.914,55.2907 139.5,55.5C 140.501,59.5044 141.501,63.5044 142.5,67.5C 143.328,68.4147 144.328,69.0814 145.5,69.5C 147.849,73.0181 149.849,76.6848 151.5,80.5C 140.031,71.228 134.865,59.228 136,44.5C 136.705,41.5243 137.871,38.8577 139.5,36.5 Z"/></g>
<g><path style="opacity:0.62" fill="#54b1bb" d="M 124.5,93.5 C 123.624,93.6309 122.957,93.2975 122.5,92.5C 117.702,83.6945 115.702,74.3612 116.5,64.5C 113.712,67.4637 111.046,70.6304 108.5,74C 107.552,74.4828 106.552,74.6495 105.5,74.5C 110.277,69.124 114.944,63.624 119.5,58C 120.635,57.2506 121.635,57.4173 122.5,58.5C 118.033,70.4935 118.7,82.1602 124.5,93.5 Z"/></g>
<g><path style="opacity:1" fill="#16acc4" d="M 124.5,93.5 C 131.3,100.149 136.8,107.815 141,116.5C 146.507,132.985 142.673,146.818 129.5,158C 120.913,165.761 111.913,172.927 102.5,179.5C 102.265,178.903 101.765,178.57 101,178.5C 91.716,185.227 81.8827,191.06 71.5,196C 48.826,196.833 26.1593,196.666 3.5,195.5C 5.5713,194.024 6.5713,192.024 6.5,189.5C 39.7365,151.353 72.7365,113.02 105.5,74.5C 106.552,74.6495 107.552,74.4828 108.5,74C 111.046,70.6304 113.712,67.4637 116.5,64.5C 115.702,74.3612 117.702,83.6945 122.5,92.5C 122.957,93.2975 123.624,93.6309 124.5,93.5 Z"/></g>
<g><path style="opacity:1" fill="#f08a2a" d="M 212.5,63.5 C 220.262,72.2623 227.262,81.5956 233.5,91.5C 230.383,90.218 228.05,88.0513 226.5,85C 225.175,85.1484 224.008,84.9817 223,84.5C 222.604,81.3036 221.438,78.4703 219.5,76C 218.833,75.3333 218.167,75.3333 217.5,76C 218.451,76.7175 218.617,77.5509 218,78.5C 215.697,77.2561 215.197,75.5894 216.5,73.5C 214.823,70.7426 213.49,67.4093 212.5,63.5 Z"/></g>
<g><path style="opacity:0.969" fill="#ed9e4e" d="M 233.5,91.5 C 235.984,93.8003 237.984,96.4669 239.5,99.5C 235.562,98.235 233.562,95.5684 233.5,91.5 Z"/></g>
<g><path style="opacity:1" fill="#eb9e4f" d="M 239.5,99.5 C 243.321,103.806 246.655,108.473 249.5,113.5C 244.214,110.216 240.88,105.549 239.5,99.5 Z"/></g>
<g><path style="opacity:0.675" fill="#e18a30" d="M 183.5,107.5 C 190.241,109.232 195.241,113.232 198.5,119.5C 194.053,114.71 189.053,110.71 183.5,107.5 Z"/></g>
<g><path style="opacity:0.992" fill="#eca95f" d="M 249.5,113.5 C 254.601,118.936 258.934,124.936 262.5,131.5C 260.771,130.883 259.271,129.883 258,128.5C 255.72,124.553 253.053,120.887 250,117.5C 249.51,116.207 249.343,114.873 249.5,113.5 Z"/></g>
<g><path style="opacity:0.365" fill="#e5ab67" d="M 262.5,131.5 C 264.326,133.147 265.66,135.147 266.5,137.5C 264.178,136.198 262.845,134.198 262.5,131.5 Z"/></g>
<g><path style="opacity:0.248" fill="#e3903c" d="M 205.5,130.5 C 207.411,130.574 208.578,131.574 209,133.5C 212.21,143.268 213.21,153.268 212,163.5C 211.76,165.852 210.927,167.852 209.5,169.5C 213.066,155.95 211.733,142.95 205.5,130.5 Z"/></g>
<g><path style="opacity:1" fill="#ef8f33" d="M 266.5,137.5 C 272.213,144.548 277.546,151.881 282.5,159.5C 280.202,158.203 278.202,156.537 276.5,154.5C 275.833,155.167 275.167,155.833 274.5,156.5C 273.253,154.994 273.253,153.494 274.5,152C 270.678,147.71 268.012,142.876 266.5,137.5 Z"/></g>
<g><path style="opacity:0.639" fill="#e68f39" d="M 209.5,169.5 C 209.662,171.527 209.495,173.527 209,175.5C 206.679,178.486 205.012,181.819 204,185.5C 200.835,188.49 197.668,191.49 194.5,194.5C 193.596,195.209 193.263,196.209 193.5,197.5C 191.645,197.728 190.812,197.061 191,195.5C 199.397,188.355 205.564,179.689 209.5,169.5 Z"/></g>
<g><path style="opacity:1" fill="#ed8c32" d="M 282.5,159.5 C 289.599,167.6 295.933,176.267 301.5,185.5C 301.5,186.167 301.5,186.833 301.5,187.5C 296.577,184.033 293.411,179.366 292,173.5C 286.577,170.309 283.41,165.642 282.5,159.5 Z"/></g>
<g><path style="opacity:0.953" fill="#e59d51" d="M 301.5,185.5 C 304.701,188.542 307.367,192.042 309.5,196C 309.164,197.03 308.497,197.53 307.5,197.5C 307.737,196.209 307.404,195.209 306.5,194.5C 304.453,192.45 302.786,190.117 301.5,187.5C 301.5,186.833 301.5,186.167 301.5,185.5 Z"/></g>
<g><path style="opacity:0.349" fill="#299fad" d="M 102.5,179.5 C 93.0553,186.064 83.0553,191.897 72.5,197C 48.8357,197.5 25.169,197.667 1.5,197.5C 2.34048,194.324 4.00714,191.658 6.5,189.5C 6.5713,192.024 5.5713,194.024 3.5,195.5C 26.1593,196.666 48.826,196.833 71.5,196C 81.8827,191.06 91.716,185.227 101,178.5C 101.765,178.57 102.265,178.903 102.5,179.5 Z"/></g>
<g><path style="opacity:0.337" fill="#e27c1d" d="M 194.5,194.5 C 212.821,195.833 231.488,196.5 250.5,196.5C 269.512,196.5 288.179,195.833 306.5,194.5C 307.404,195.209 307.737,196.209 307.5,197.5C 269.5,197.5 231.5,197.5 193.5,197.5C 193.263,196.209 193.596,195.209 194.5,194.5 Z"/></g>
</svg>
